<svg xmlns="http://www.w3.org/2000/svg" viewBox="0 0 760 560" width="760" height="560" font-family="-apple-system, BlinkMacSystemFont, 'Segoe UI', Helvetica, Arial, sans-serif">
<style>
  :root {
    --bg: #fcfcfb; --ink: #0b0b0b; --muted: #52514e; --grid: #e0e0dd;
    --s1: #2a78d6; --s2: #008300; --s3: #e87ba4; --s4: #eda100; --s5: #1baf7a;
    --s6: #eb6834;
  }
  @media (prefers-color-scheme: dark) {
    :root {
      --bg: #1a1a19; --ink: #f5f5f2; --muted: #a8a79d; --grid: #33322f;
      --s1: #3987e5; --s2: #008300; --s3: #d55181; --s4: #c98500; --s5: #199e70;
      --s6: #d95926;
    }
  }
  .surface { fill: var(--bg); }
  .grid { stroke: var(--grid); stroke-width: 1; }
  .title { fill: var(--ink); font-size: 13px; font-weight: 600; }
  .panel { fill: var(--ink); font-size: 11px; font-weight: 600; }
  .sub, .tick { fill: var(--muted); }
  .sub { font-size: 11px; }
  .tick { font-size: 10px; }
  .s1 { fill: var(--s1); } .s2 { fill: var(--s2); } .s3 { fill: var(--s3); }
  .s4 { fill: var(--s4); } .s5 { fill: var(--s5); } .s6 { fill: var(--s6); }
  .l1 { stroke: var(--s1); } .l2 { stroke: var(--s2); } .l3 { stroke: var(--s3); }
  .line { fill: none; stroke-width: 2; }
</style>
<rect class="surface" x="0" y="0" width="760" height="560" rx="6"/>
<text class="title" x="52" y="22">Effort, cost and time by day</text>
<text class="sub" x="52" y="38">Three panels on one shared x-axis — read the cost bar against the effort bar above it.</text>
<text class="panel" x="52" y="64">Effort split (%)</text>
<line class="grid" x1="52" y1="224" x2="744" y2="224"/><text class="tick" x="44" y="228" text-anchor="end">0</text><line class="grid" x1="52" y1="149" x2="744" y2="149"/><text class="tick" x="44" y="153" text-anchor="end">50</text><line class="grid" x1="52" y1="74" x2="744" y2="74"/><text class="tick" x="44" y="78" text-anchor="end">100</text><rect class="s1" x="97.2" y="216.5" width="48" height="5.5" rx="0"/><rect class="s2" x="97.2" y="197.75" width="48" height="16.75" rx="0"/><rect class="s3" x="97.2" y="150.5" width="48" height="45.25" rx="0"/><rect class="s4" x="97.2" y="101.00000000000001" width="48" height="47.5" rx="0"/><rect class="s5" x="97.2" y="80.75" width="48" height="18.25" rx="0"/><rect class="s6" x="97.2" y="74" width="48" height="4.75" rx="4"/><rect class="s3" x="235.60000000000002" y="141.5" width="48" height="80.5" rx="0"/><rect class="s4" x="235.60000000000002" y="89" width="48" height="50.5" rx="0"/><rect class="s5" x="235.60000000000002" y="84.5" width="48" height="2.5" rx="0"/><rect class="s6" x="235.60000000000002" y="74" width="48" height="8.500000000000002" rx="4"/><rect class="s1" x="374" y="156.5" width="48" height="65.5" rx="0"/><rect class="s2" x="374" y="144.5" width="48" height="10" rx="0"/><rect class="s3" x="374" y="132.5" width="48" height="10" rx="0"/><rect class="s4" x="374" y="114.5" width="48" height="16" rx="0"/><rect class="s5" x="374" y="92" width="48" height="20.5" rx="0"/><rect class="s6" x="374" y="74" width="48" height="16" rx="4"/><rect class="s1" x="512.4000000000001" y="179" width="48" height="43" rx="0"/><rect class="s2" x="512.4000000000001" y="171.5" width="48" height="5.5" rx="0"/><rect class="s3" x="512.4000000000001" y="153.5" width="48" height="16" rx="0"/><rect class="s4" x="512.4000000000001" y="131" width="48" height="20.5" rx="0"/><rect class="s5" x="512.4000000000001" y="104" width="48" height="25" rx="0"/><rect class="s6" x="512.4000000000001" y="74" width="48" height="28" rx="4"/><rect class="s1" x="650.8000000000001" y="171.5" width="48" height="50.5" rx="0"/><rect class="s2" x="650.8000000000001" y="168.5" width="48" height="1" rx="0"/><rect class="s3" x="650.8000000000001" y="150.5" width="48" height="16" rx="0"/><rect class="s4" x="650.8000000000001" y="131" width="48" height="17.5" rx="0"/><rect class="s5" x="650.8000000000001" y="101.00000000000001" width="48" height="28" rx="0"/><rect class="s6" x="650.8000000000001" y="74" width="48" height="25" rx="4"/>
<rect class="s1" x="52" y="250" width="10" height="10" rx="2"/><text class="sub" x="67" y="259">Build</text><rect class="s2" x="160" y="250" width="10" height="10" rx="2"/><text class="sub" x="175" y="259">Setup</text><rect class="s3" x="268" y="250" width="10" height="10" rx="2"/><text class="sub" x="283" y="259">Design</text><rect class="s4" x="376" y="250" width="10" height="10" rx="2"/><text class="sub" x="391" y="259">Docs</text><rect class="s5" x="484" y="250" width="10" height="10" rx="2"/><text class="sub" x="499" y="259">Verify/Ops</text><rect class="s6" x="592" y="250" width="10" height="10" rx="2"/><text class="sub" x="607" y="259">Churn</text>
<text class="panel" x="52" y="278">LLM cost (USD, API-equivalent)</text>
<line class="grid" x1="52" y1="384" x2="744" y2="384"/><text class="tick" x="44" y="388" text-anchor="end">$0</text><line class="grid" x1="52" y1="288" x2="744" y2="288"/><text class="tick" x="44" y="292" text-anchor="end">$100</text><rect class="s1" x="97.2" y="344.592" width="48" height="39.408" rx="4"/><text class="tick" x="121.2" y="339.592" text-anchor="middle">$41</text><rect class="s1" x="235.60000000000002" y="375.3984" width="48" height="8.601600000000001" rx="4"/><text class="tick" x="259.6" y="370.3984" text-anchor="middle">$9</text><rect class="s1" x="374" y="294.0384" width="48" height="89.96159999999999" rx="4"/><text class="tick" x="398" y="289.0384" text-anchor="middle">$94</text><rect class="s1" x="512.4000000000001" y="338.1024" width="48" height="45.897600000000004" rx="4"/><text class="tick" x="536.4000000000001" y="333.1024" text-anchor="middle">$48</text><rect class="s1" x="650.8000000000001" y="323.6832" width="48" height="60.3168" rx="4"/><text class="tick" x="674.8000000000001" y="318.6832" text-anchor="middle">$63</text>
<text class="panel" x="52" y="424">Time (hours)</text>
<line class="grid" x1="52" y1="518" x2="744" y2="518"/><text class="tick" x="44" y="522" text-anchor="end">0h</text><line class="grid" x1="52" y1="434" x2="744" y2="434"/><text class="tick" x="44" y="438" text-anchor="end">10h</text><rect class="s1" x="97.2" y="512.47" width="23" height="5.529999999999999" rx="3"/><rect class="s2" x="122.2" y="467.264" width="23" height="50.736" rx="3"/><rect class="s1" x="235.60000000000002" y="514.976" width="23" height="3.0240000000000005" rx="3"/><rect class="s2" x="260.6" y="456.512" width="23" height="61.488" rx="3"/><rect class="s1" x="374" y="502.88" width="23" height="15.12" rx="3"/><rect class="s2" x="399" y="455" width="23" height="63" rx="3"/><rect class="s1" x="512.4000000000001" y="509.978" width="23" height="8.022" rx="3"/><rect class="s2" x="537.4000000000001" y="467.46" width="23" height="50.54" rx="3"/><rect class="s1" x="650.8000000000001" y="510.02" width="23" height="7.98" rx="3"/><rect class="s2" x="675.8000000000001" y="437.682" width="23" height="80.318" rx="3"/>
<rect class="s1" x="52" y="544" width="10" height="10" rx="2"/><text class="sub" x="67" y="553">API</text><rect class="s2" x="164" y="544" width="10" height="10" rx="2"/><text class="sub" x="179" y="553">Wall</text>
<text class="tick" x="121.2" y="533" text-anchor="middle">08-30</text><text class="tick" x="259.6" y="533" text-anchor="middle">08-31</text><text class="tick" x="398" y="533" text-anchor="middle">09-05</text><text class="tick" x="536.4000000000001" y="533" text-anchor="middle">09-06</text><text class="tick" x="674.8000000000001" y="533" text-anchor="middle">09-07</text>
</svg>
